<svg width="30" height="30" viewBox="0 0 30 30" fill="none" xmlns="http://www.w3.org/2000/svg">
<path d="M15 0C15.9921 0 16.9435 0.385452 17.645 1.07156C18.3465 1.75767 18.7406 2.68823 18.7406 3.65854C18.7406 4.62884 18.3465 5.5594 17.645 6.24551C16.9435 6.93162 15.9921 7.31707 15 7.31707C14.0079 7.31707 13.0565 6.93162 12.355 6.24551C11.6535 5.5594 11.2594 4.62884 11.2594 3.65854C11.2594 2.68823 11.6535 1.75767 12.355 1.07156C13.0565 0.385452 14.0079 0 15 0ZM20.7905 5.12195C23.9776 5.12195 26.9701 8.04878 26.9701 10.9756C31.01 10.9756 31.01 16.8293 26.9701 16.8293H3.02993C-1.00998 16.8293 -1.00998 10.9756 3.02993 10.9756C3.02993 8.04878 6.02244 5.12195 9.20948 5.12195C9.86783 7.65366 12.217 9.5122 15 9.5122C17.783 9.5122 20.1322 7.65366 20.7905 5.12195ZM4.52619 19.7561H9.01496L10.5112 30H7.5187L4.52619 19.7561ZM12.0075 19.7561H17.9925L16.4963 30H13.5037L12.0075 19.7561ZM20.985 19.7561H25.4738L22.4813 30H19.4888L20.985 19.7561Z" fill="#004AAD"/>
</svg>
